<svg id="svg" version="1.1" width="2430" height="216" viewBox="0 0 2430 216" xmlns="http://www.w3.org/2000/svg"><path d="M6.000 105.000 L 6.000 199.000 26.500 199.000 L 47.000 199.000 47.000 165.599 L 47.000 132.198 76.750 131.729 C 109.305 131.215,112.449 130.757,125.000 124.707 C 133.928 120.403,144.642 109.694,148.827 100.890 C 152.883 92.357,155.009 82.068,154.965 71.185 C 154.865 46.532,143.900 27.780,123.985 18.205 C 109.891 11.429,105.626 11.000,52.390 11.000 L 6.000 11.000 6.000 105.000 M1332.000 26.000 L 1332.000 41.000 1350.500 41.000 L 1369.000 41.000 1369.000 26.000 L 1369.000 11.000 1350.500 11.000 L 1332.000 11.000 1332.000 26.000 M1494.667 11.667 C 1494.300 12.033,1494.000 27.383,1494.000 45.777 L 1494.000 79.220 1488.599 73.732 C 1474.184 59.085,1448.990 55.638,1428.234 65.473 C 1402.995 77.434,1389.327 109.130,1394.432 143.863 C 1398.155 169.188,1409.579 187.275,1427.379 196.022 C 1436.768 200.635,1442.978 202.000,1454.587 202.000 C 1472.253 202.000,1484.104 196.900,1492.843 185.539 C 1495.976 181.465,1497.179 183.526,1496.759 192.250 L 1496.435 199.000 1513.717 199.000 L 1531.000 199.000 1531.000 105.000 L 1531.000 11.000 1513.167 11.000 C 1503.358 11.000,1495.033 11.300,1494.667 11.667 M1961.000 26.000 L 1961.000 41.000 1979.500 41.000 L 1998.000 41.000 1998.000 26.000 L 1998.000 11.000 1979.500 11.000 L 1961.000 11.000 1961.000 26.000 M2065.825 12.921 C 2062.154 13.912,2057.178 15.878,2054.767 17.290 C 2049.006 20.667,2042.378 27.953,2039.981 33.545 C 2038.030 38.096,2036.000 50.936,2036.000 58.724 L 2036.000 63.000 2025.000 63.000 L 2014.000 63.000 2014.000 75.250 L 2014.000 87.500 2022.520 87.147 C 2027.206 86.952,2032.156 87.073,2033.520 87.416 L 2036.000 88.038 2036.000 143.519 L 2036.000 199.000 2054.500 199.000 L 2073.000 199.000 2073.000 144.122 C 2073.000 97.478,2073.217 89.065,2074.446 88.045 C 2075.427 87.230,2079.522 86.929,2087.196 87.108 L 2098.500 87.370 2098.781 75.185 L 2099.062 63.000 2086.590 63.000 C 2078.723 63.000,2073.871 62.600,2073.449 61.918 C 2073.081 61.323,2073.097 57.458,2073.484 53.329 C 2074.071 47.065,2074.655 45.298,2077.010 42.661 C 2079.794 39.543,2079.976 39.495,2090.416 39.159 L 2101.000 38.818 2101.000 25.545 L 2101.000 12.272 2096.360 11.636 C 2087.602 10.435,2072.716 11.062,2065.825 12.921 M2117.000 26.000 L 2117.000 41.000 2135.500 41.000 L 2154.000 41.000 2154.000 26.000 L 2154.000 11.000 2135.500 11.000 L 2117.000 11.000 2117.000 26.000 M1877.959 22.750 C 1877.937 23.163,1877.954 31.631,1877.997 41.570 C 1878.040 51.508,1877.785 60.396,1877.431 61.320 C 1876.882 62.751,1875.173 63.000,1865.893 63.000 L 1855.000 63.000 1854.999 75.250 L 1854.998 87.500 1864.749 87.216 C 1870.112 87.059,1875.175 87.380,1876.000 87.928 C 1877.285 88.782,1877.572 95.503,1878.000 134.713 C 1878.488 179.433,1878.551 180.595,1880.691 184.595 C 1887.153 196.670,1901.847 201.750,1927.226 200.683 C 1934.225 200.389,1940.413 199.863,1940.976 199.515 C 1941.594 199.133,1942.000 193.450,1942.000 185.177 L 1942.000 171.473 1932.750 171.486 C 1922.488 171.501,1918.385 170.133,1916.294 166.000 C 1915.342 164.118,1915.026 154.193,1915.015 125.857 C 1915.001 91.220,1915.137 88.161,1916.714 87.556 C 1917.657 87.194,1923.170 86.948,1928.964 87.008 C 1934.759 87.068,1940.063 87.091,1940.750 87.058 C 1941.677 87.015,1942.000 83.908,1942.000 75.028 L 1942.000 63.056 1928.414 62.778 L 1914.828 62.500 1914.952 43.930 C 1915.020 33.717,1914.785 24.604,1914.431 23.680 C 1913.860 22.193,1911.729 22.000,1895.893 22.000 C 1886.052 22.000,1877.982 22.337,1877.959 22.750 M96.942 44.905 C 100.307 45.952,104.677 48.042,106.651 49.548 C 118.444 58.542,118.444 84.458,106.651 93.452 C 99.508 98.901,93.172 100.000,68.911 100.000 L 47.000 100.000 47.000 71.500 L 47.000 43.000 68.911 43.000 C 87.648 43.000,91.708 43.276,96.942 44.905 M222.500 60.653 C 210.444 62.566,199.391 67.284,189.938 74.551 C 162.914 95.328,157.060 142.879,177.671 174.191 C 185.502 186.088,195.726 193.728,210.500 198.724 C 217.956 201.245,219.657 201.429,235.500 201.427 C 251.513 201.424,252.965 201.262,260.500 198.638 C 275.143 193.540,284.470 186.806,292.529 175.512 C 300.643 164.141,304.633 152.145,305.673 136.000 C 307.171 112.731,298.569 89.689,283.305 76.084 C 277.046 70.505,266.548 64.975,257.500 62.490 C 251.559 60.858,228.753 59.661,222.500 60.653 M554.754 61.084 C 544.358 63.535,530.508 73.796,525.918 82.448 C 524.590 84.952,523.165 87.000,522.752 87.000 C 522.338 87.000,522.000 81.600,522.000 75.000 L 522.000 63.000 504.500 63.000 L 487.000 63.000 487.000 131.000 L 487.000 199.000 505.500 199.000 L 524.000 199.000 524.000 162.956 C 524.000 122.915,524.513 118.552,530.371 108.795 C 536.893 97.929,546.004 93.824,563.000 94.093 L 573.500 94.260 573.776 77.955 C 573.985 65.581,573.744 61.454,572.776 60.840 C 571.122 59.791,559.577 59.947,554.754 61.084 M847.667 61.629 C 821.556 67.230,803.629 84.885,797.277 111.253 C 794.889 121.164,794.906 140.868,797.311 151.000 C 803.436 176.802,822.680 195.649,847.963 200.608 C 860.626 203.091,879.780 202.164,890.490 198.550 C 910.424 191.822,924.944 177.470,931.313 158.201 C 938.364 136.866,936.696 112.753,926.861 93.850 C 920.262 81.165,908.199 70.202,895.204 65.080 C 882.589 60.108,861.794 58.598,847.667 61.629 M1151.854 61.500 C 1134.652 64.755,1123.781 71.665,1118.027 83.000 C 1114.381 90.183,1112.611 99.003,1113.366 106.223 C 1114.144 113.672,1115.923 117.803,1120.569 122.945 C 1127.749 130.892,1136.702 134.605,1163.930 140.926 C 1190.628 147.125,1198.384 151.543,1198.249 160.473 C 1198.150 167.041,1195.430 170.960,1188.517 174.495 C 1183.217 177.205,1181.748 177.494,1173.570 177.436 C 1165.829 177.382,1163.667 176.973,1158.818 174.646 C 1151.860 171.307,1147.381 166.397,1145.889 160.474 L 1144.763 156.000 1127.381 156.000 L 1110.000 156.000 1110.000 158.272 C 1110.000 159.521,1110.849 163.606,1111.887 167.349 C 1116.165 182.776,1128.624 193.900,1148.000 199.590 C 1153.392 201.174,1157.739 201.499,1173.500 201.500 C 1190.647 201.500,1193.229 201.271,1199.975 199.153 C 1210.716 195.780,1216.613 192.511,1223.077 186.345 C 1231.355 178.449,1234.290 171.447,1234.814 158.348 C 1235.266 147.037,1234.330 142.870,1229.872 136.344 C 1223.639 127.219,1209.950 121.068,1183.500 115.510 C 1156.964 109.933,1149.233 105.284,1150.386 95.597 C 1151.027 90.215,1154.239 87.394,1161.974 85.421 C 1177.890 81.361,1192.857 87.329,1195.996 98.987 L 1197.077 103.000 1214.539 103.000 C 1228.129 103.000,1232.000 102.714,1232.000 101.710 C 1232.000 98.572,1228.706 88.230,1226.295 83.801 C 1221.128 74.307,1209.815 66.238,1196.437 62.503 C 1188.053 60.162,1162.020 59.576,1151.854 61.500 M1604.780 61.979 C 1580.321 68.194,1562.405 86.456,1555.930 111.774 C 1553.453 121.460,1553.304 140.016,1555.621 150.303 C 1560.013 169.799,1571.920 185.854,1588.035 194.011 C 1599.894 200.012,1607.044 201.500,1624.000 201.495 C 1637.550 201.491,1640.381 201.198,1646.500 199.162 C 1663.007 193.672,1674.001 184.073,1681.545 168.565 C 1684.085 163.344,1685.875 158.606,1685.522 158.036 C 1685.125 157.394,1679.025 157.000,1669.467 157.000 L 1654.051 157.000 1652.552 159.900 C 1650.329 164.199,1643.404 169.692,1637.079 172.173 C 1632.834 173.838,1629.468 174.349,1623.000 174.311 C 1606.562 174.212,1597.554 168.054,1592.664 153.572 C 1591.749 150.861,1591.000 146.703,1591.000 144.331 L 1591.000 140.019 1639.750 139.760 L 1688.500 139.500 1688.795 132.170 C 1688.958 128.138,1688.362 120.938,1687.471 116.170 C 1682.532 89.726,1666.416 69.966,1644.025 62.901 C 1634.269 59.822,1615.047 59.371,1604.780 61.979 M1775.265 61.542 C 1764.955 64.318,1754.992 71.080,1749.749 78.858 C 1747.129 82.746,1746.000 80.512,1746.000 71.441 L 1746.000 63.000 1728.500 63.000 L 1711.000 63.000 1711.000 131.000 L 1711.000 199.000 1729.500 199.000 L 1748.000 199.000 1748.008 162.750 C 1748.013 142.813,1748.477 122.484,1749.039 117.575 C 1751.191 98.788,1758.868 90.242,1774.500 89.231 C 1788.234 88.343,1795.643 92.885,1799.454 104.530 C 1801.244 110.001,1801.440 114.199,1801.806 154.750 L 1802.204 199.000 1820.352 199.001 L 1838.500 199.001 1837.963 146.751 C 1837.438 95.659,1837.376 94.356,1835.150 88.000 C 1829.809 72.749,1820.779 64.757,1805.144 61.443 C 1796.733 59.660,1782.070 59.709,1775.265 61.542 M2234.500 60.585 C 2209.686 66.523,2195.114 77.060,2185.492 96.022 C 2173.488 119.680,2175.162 152.432,2189.476 173.964 C 2197.469 185.987,2207.474 193.422,2222.756 198.697 C 2229.956 201.182,2231.693 201.371,2247.500 201.385 C 2263.718 201.399,2264.845 201.270,2272.000 198.584 C 2287.647 192.709,2297.954 183.432,2305.267 168.642 C 2311.164 156.715,2311.982 157.543,2294.000 157.232 L 2278.500 156.963 2275.000 161.695 C 2266.144 173.668,2248.575 177.929,2232.641 171.967 C 2222.937 168.336,2215.730 157.609,2214.860 145.500 L 2214.500 140.500 2263.500 140.000 L 2312.500 139.500 2312.198 129.000 C 2311.604 108.294,2304.793 90.789,2292.522 78.425 C 2279.884 65.691,2268.488 60.984,2249.000 60.449 C 2242.125 60.261,2235.600 60.322,2234.500 60.585 M2404.000 60.715 C 2402.625 60.959,2398.243 62.711,2394.262 64.611 C 2386.051 68.528,2377.405 76.326,2374.108 82.788 C 2372.926 85.105,2371.518 87.000,2370.980 87.000 C 2370.395 87.000,2370.000 82.167,2370.000 75.000 L 2370.000 63.000 2352.500 63.000 L 2335.000 63.000 2335.000 131.000 L 2335.000 199.000 2353.426 199.000 L 2371.852 199.000 2372.227 161.250 C 2372.580 125.650,2372.726 123.130,2374.784 117.000 C 2377.810 107.991,2383.121 101.403,2390.433 97.592 C 2396.045 94.668,2397.048 94.488,2408.933 94.276 L 2421.500 94.052 2421.776 77.851 C 2421.985 65.562,2421.743 61.454,2420.776 60.840 C 2419.465 60.008,2408.456 59.926,2404.000 60.715 M331.000 112.317 C 331.000 157.884,331.149 162.263,332.938 169.259 C 338.685 191.729,349.971 200.539,374.500 201.704 C 394.111 202.635,404.027 199.254,415.175 187.836 C 418.846 184.076,422.108 181.000,422.425 181.000 C 422.741 181.000,423.000 185.050,423.000 190.000 L 423.000 199.000 440.500 199.000 L 458.000 199.000 458.000 131.000 L 458.000 63.000 439.575 63.000 L 421.151 63.000 420.776 105.750 C 420.425 145.743,420.267 148.897,418.334 154.658 C 415.643 162.675,412.913 166.381,407.254 169.697 C 403.445 171.929,401.127 172.474,393.974 172.816 C 383.681 173.308,377.806 171.287,373.780 165.869 C 368.594 158.891,368.566 158.612,368.015 109.500 L 367.500 63.500 349.250 63.227 L 331.000 62.955 331.000 112.317 M650.000 63.662 C 650.000 64.026,651.630 69.089,653.621 74.912 C 665.890 110.783,682.165 158.518,688.427 177.000 L 695.712 198.500 716.606 198.763 L 737.500 199.026 749.370 163.763 C 778.615 76.881,783.000 63.792,783.000 63.386 C 783.000 63.149,774.794 63.078,764.765 63.227 L 746.530 63.500 739.743 85.500 C 730.195 116.449,726.395 128.732,722.132 142.430 C 720.089 148.992,717.987 154.502,717.459 154.675 C 716.932 154.848,714.849 149.480,712.832 142.745 C 710.815 136.010,707.361 124.650,705.157 117.500 C 702.953 110.350,698.309 95.162,694.837 83.750 L 688.523 63.000 669.262 63.000 C 658.668 63.000,650.000 63.298,650.000 63.662 M960.016 103.750 C 960.025 126.162,960.470 149.788,961.005 156.250 C 963.036 180.757,970.894 193.343,987.816 199.190 C 993.643 201.204,996.358 201.493,1009.000 201.445 C 1021.721 201.396,1024.175 201.111,1029.000 199.117 C 1036.022 196.216,1044.385 189.922,1047.820 184.952 C 1049.294 182.820,1050.820 181.059,1051.211 181.038 C 1051.602 181.017,1052.052 184.938,1052.211 189.750 L 1052.500 198.500 1070.000 198.772 L 1087.500 199.044 1087.500 131.022 L 1087.500 63.000 1069.250 63.000 L 1051.000 63.000 1050.964 98.250 C 1050.920 142.486,1050.234 151.051,1046.060 159.531 C 1040.821 170.171,1032.995 173.841,1017.850 172.757 C 1009.440 172.155,1004.786 169.043,1001.198 161.622 C 997.723 154.433,997.016 144.335,997.008 101.750 L 997.000 63.000 978.500 63.000 L 960.000 63.000 960.016 103.750 M1332.000 131.000 L 1332.000 199.000 1350.500 199.000 L 1369.000 199.000 1369.000 131.000 L 1369.000 63.000 1350.500 63.000 L 1332.000 63.000 1332.000 131.000 M1961.000 131.000 L 1961.000 199.000 1979.500 199.000 L 1998.000 199.000 1998.000 131.000 L 1998.000 63.000 1979.500 63.000 L 1961.000 63.000 1961.000 131.000 M2117.000 131.000 L 2117.000 199.000 2135.500 199.000 L 2154.000 199.000 2154.000 131.000 L 2154.000 63.000 2135.500 63.000 L 2117.000 63.000 2117.000 131.000 M247.509 89.658 C 254.353 91.990,262.022 99.771,264.804 107.205 C 271.357 124.720,269.745 148.954,261.172 161.780 C 250.750 177.375,225.761 179.229,212.974 165.356 C 195.808 146.733,199.771 101.718,219.500 91.235 C 227.611 86.926,237.805 86.351,247.509 89.658 M877.442 89.681 C 883.173 91.545,890.552 98.367,893.424 104.457 C 900.194 118.811,900.506 141.479,894.136 156.220 C 888.004 170.412,872.660 177.590,857.020 173.584 C 844.093 170.272,836.878 161.699,833.580 145.733 C 829.696 126.932,833.321 107.292,842.562 97.063 C 850.941 87.788,863.472 85.136,877.442 89.681 M1469.201 88.123 C 1476.723 89.718,1481.151 92.229,1485.845 97.561 C 1493.180 105.894,1496.822 120.799,1495.483 137.000 C 1493.712 158.407,1485.179 170.953,1470.287 174.044 C 1450.636 178.124,1435.331 164.940,1431.140 140.323 C 1429.814 132.532,1429.767 129.843,1430.827 122.510 C 1433.701 102.631,1441.489 91.777,1455.274 88.437 C 1462.020 86.802,1462.876 86.783,1469.201 88.123 M1632.000 88.987 C 1637.055 90.426,1641.385 93.327,1644.423 97.310 C 1647.081 100.795,1650.513 109.301,1651.157 114.000 L 1651.500 116.500 1621.500 116.500 L 1591.500 116.500 1591.182 113.738 C 1590.766 110.116,1595.266 100.379,1599.304 96.165 C 1606.934 88.201,1619.531 85.436,1632.000 88.987 M2256.096 89.046 C 2264.976 91.388,2273.655 102.597,2274.257 112.500 L 2274.500 116.500 2244.500 116.500 L 2214.500 116.500 2214.845 113.064 C 2215.321 108.317,2219.190 100.127,2222.739 96.354 C 2230.244 88.373,2242.972 85.584,2256.096 89.046 " stroke="none" fill="black" fill-rule="evenodd"/></svg>