<svg id="svg" version="1.1" width="1528" height="221" viewBox="0 0 1528 221" xmlns="http://www.w3.org/2000/svg"><path d="M3.000 88.500 L 3.000 174.000 20.500 174.000 L 38.000 174.000 38.000 114.300 C 38.000 80.459,38.376 55.011,38.869 55.550 C 39.346 56.073,42.312 63.925,45.459 73.000 C 48.606 82.075,54.780 99.850,59.180 112.500 C 63.579 125.150,70.174 144.162,73.834 154.750 L 80.489 174.000 95.117 174.000 L 109.745 174.000 115.468 157.250 C 118.616 148.037,125.161 129.025,130.013 115.000 C 134.866 100.975,141.144 82.750,143.966 74.500 C 146.787 66.250,149.726 57.925,150.496 56.000 C 151.721 52.940,151.903 60.130,151.948 113.250 L 152.000 174.000 169.500 174.000 L 187.000 174.000 187.000 88.500 L 187.000 3.000 160.714 3.000 L 134.427 3.000 126.538 27.750 C 122.200 41.363,117.193 57.000,115.413 62.500 C 113.633 68.000,108.722 83.238,104.500 96.362 C 99.816 110.922,96.464 119.864,95.901 119.301 C 95.394 118.794,92.914 112.331,90.390 104.940 C 78.653 70.574,56.000 3.650,56.000 3.343 C 56.000 3.154,44.075 3.000,29.500 3.000 L 3.000 3.000 3.000 88.500 M602.000 34.000 C 602.000 51.050,601.719 65.000,601.376 65.000 C 601.033 65.000,598.989 62.996,596.833 60.548 C 591.531 54.524,581.572 49.645,571.329 48.051 C 556.154 45.690,539.485 50.868,528.986 61.203 C 521.761 68.315,516.497 76.780,513.302 86.422 C 510.851 93.822,510.621 95.885,510.563 111.000 C 510.513 124.114,510.868 128.731,512.295 133.500 C 518.102 152.910,527.700 165.590,541.537 172.134 C 549.675 175.983,557.627 177.315,569.000 176.734 C 583.185 176.010,593.654 171.276,599.457 162.962 C 602.839 158.115,604.000 159.147,604.000 167.000 L 604.000 174.000 619.489 174.000 L 634.978 174.000 635.239 88.500 L 635.500 3.000 618.750 3.000 L 602.000 3.000 602.000 34.000 M373.000 31.476 L 373.000 50.000 362.467 50.000 L 351.934 50.000 352.217 61.250 L 352.500 72.500 362.750 72.785 L 373.000 73.070 373.000 112.920 C 373.000 147.255,373.229 153.479,374.653 157.890 C 378.907 171.060,392.147 176.609,417.288 175.757 C 424.322 175.519,430.524 174.876,431.071 174.329 C 431.654 173.746,431.949 168.391,431.783 161.417 L 431.500 149.500 421.656 148.992 C 412.411 148.515,411.667 148.314,409.406 145.686 L 407.000 142.888 407.000 107.975 L 407.000 73.062 419.250 72.781 L 431.500 72.500 431.500 61.500 L 431.500 50.500 419.272 50.219 L 407.045 49.939 406.772 31.719 L 406.500 13.500 389.750 13.226 L 373.000 12.952 373.000 31.476 M266.107 48.103 C 247.760 50.894,232.586 60.228,223.627 74.234 C 216.327 85.645,213.497 96.573,213.585 113.000 C 213.694 133.130,219.162 147.382,231.518 159.742 C 244.448 172.675,258.771 177.586,281.000 176.705 C 291.710 176.281,294.689 175.773,301.801 173.156 C 320.257 166.366,332.630 153.037,338.660 133.448 C 340.116 128.718,340.478 124.326,340.427 112.000 C 340.369 97.991,340.107 95.730,337.704 88.500 C 331.096 68.619,314.697 53.556,295.217 49.474 C 285.901 47.523,273.698 46.948,266.107 48.103 M706.500 48.586 C 694.117 50.763,681.956 57.183,673.763 65.868 C 665.961 74.139,659.910 85.523,657.458 96.543 C 654.905 108.017,655.774 125.877,659.401 136.462 C 664.519 151.404,675.027 163.930,687.500 169.957 C 698.811 175.423,704.173 176.501,720.000 176.489 C 732.507 176.479,735.419 176.161,741.190 174.177 C 755.142 169.380,767.177 159.073,773.250 146.720 C 775.313 142.525,777.000 138.397,777.000 137.547 C 777.000 136.221,774.884 136.000,762.168 136.000 L 747.335 136.000 744.912 139.750 C 739.588 147.990,727.613 152.813,715.330 151.666 C 704.239 150.631,697.929 146.645,693.434 137.838 C 690.891 132.853,688.752 122.271,690.118 121.427 C 690.571 121.147,710.245 120.945,733.838 120.979 C 757.430 121.012,777.468 120.758,778.366 120.413 C 780.702 119.517,780.508 106.995,777.982 95.567 C 776.122 87.154,771.103 75.485,767.232 70.571 C 763.135 65.372,752.170 56.699,745.569 53.437 C 738.334 49.861,726.149 47.020,718.500 47.125 C 716.300 47.155,710.900 47.812,706.500 48.586 M928.000 48.119 C 919.799 49.440,908.731 55.244,904.295 60.551 C 902.250 62.998,900.241 65.000,899.832 65.000 C 899.423 65.000,898.955 61.737,898.794 57.750 L 898.500 50.500 883.000 50.500 L 867.500 50.500 867.244 133.750 L 866.989 217.000 883.994 217.000 L 901.000 217.000 901.000 188.500 C 901.000 172.825,901.204 160.000,901.452 160.000 C 901.701 160.000,904.078 162.174,906.735 164.830 C 909.392 167.487,914.691 171.200,918.512 173.080 C 925.397 176.470,925.577 176.500,938.979 176.466 C 951.319 176.434,953.047 176.200,958.758 173.782 C 974.012 167.326,984.792 154.147,990.227 135.309 C 992.144 128.663,992.466 125.267,992.387 112.500 C 992.305 99.316,991.973 96.439,989.647 88.735 C 986.173 77.232,981.940 69.857,974.545 62.425 C 967.142 54.985,958.241 50.409,947.419 48.481 C 938.537 46.898,935.891 46.849,928.000 48.119 M1055.500 48.497 C 1030.033 52.575,1014.808 65.770,1012.805 85.500 L 1012.500 88.500 1027.000 88.787 C 1034.975 88.945,1042.452 88.839,1043.616 88.552 C 1045.114 88.182,1046.112 86.672,1047.033 83.380 C 1049.572 74.314,1056.893 69.993,1069.693 70.006 C 1080.629 70.016,1086.770 73.008,1089.629 79.718 C 1092.647 86.802,1090.187 94.283,1083.868 97.232 C 1080.662 98.729,1070.344 100.615,1052.279 103.006 C 1024.478 106.686,1012.442 115.345,1008.975 134.159 C 1007.689 141.138,1009.147 151.561,1012.291 157.863 C 1015.278 163.852,1023.815 171.383,1030.753 174.152 C 1035.803 176.168,1038.258 176.449,1051.000 176.473 C 1062.653 176.495,1066.580 176.129,1071.000 174.613 C 1078.371 172.084,1083.727 169.342,1088.249 165.783 C 1092.302 162.594,1092.204 162.527,1093.709 169.500 L 1094.573 173.500 1111.287 173.774 C 1120.479 173.925,1128.000 173.697,1128.000 173.268 C 1128.000 172.838,1127.466 170.915,1126.813 168.993 C 1126.007 166.620,1125.423 150.908,1124.992 120.000 C 1124.503 84.922,1124.039 73.606,1122.964 70.595 C 1120.804 64.548,1113.036 56.738,1106.072 53.613 C 1093.942 48.169,1071.639 45.913,1055.500 48.497 M1189.500 48.139 C 1169.044 50.729,1156.199 58.833,1151.146 72.338 C 1147.943 80.899,1148.130 92.861,1151.574 99.773 C 1156.546 109.750,1165.638 114.362,1193.430 121.003 C 1211.833 125.401,1221.020 128.939,1224.054 132.796 C 1226.437 135.826,1226.616 142.149,1224.423 145.861 C 1219.573 154.071,1202.555 157.473,1190.833 152.574 C 1183.533 149.525,1178.000 143.046,1178.000 137.550 L 1178.000 135.000 1161.860 135.000 L 1145.720 135.000 1146.276 140.384 C 1147.481 152.063,1155.715 163.386,1167.581 169.682 C 1178.611 175.534,1183.617 176.498,1203.000 176.499 C 1218.583 176.500,1221.320 176.242,1227.988 174.149 C 1238.112 170.970,1242.385 168.655,1248.242 163.177 C 1263.470 148.933,1263.967 122.702,1249.223 111.444 C 1242.756 106.506,1232.158 102.542,1216.000 99.018 C 1197.092 94.894,1190.142 92.599,1185.941 89.091 C 1182.937 86.584,1182.500 85.636,1182.500 81.632 C 1182.500 73.631,1188.257 70.077,1201.307 70.024 C 1213.712 69.973,1221.741 74.512,1223.667 82.664 L 1224.573 86.500 1240.812 86.775 L 1257.051 87.050 1256.438 84.275 C 1254.518 75.578,1252.672 70.876,1249.287 66.058 C 1242.576 56.506,1232.462 51.219,1215.704 48.501 C 1205.636 46.868,1200.141 46.792,1189.500 48.139 M1318.500 48.139 C 1293.666 51.283,1280.662 61.734,1278.096 80.609 C 1275.238 101.634,1284.967 112.006,1314.085 118.976 C 1342.478 125.773,1350.175 128.556,1353.430 133.204 C 1355.949 136.800,1355.449 143.313,1352.374 146.967 C 1347.666 152.562,1342.670 154.437,1332.500 154.423 C 1325.149 154.413,1322.632 153.987,1318.762 152.101 C 1313.310 149.443,1308.298 144.193,1307.431 140.232 C 1307.102 138.729,1306.660 136.938,1306.448 136.250 C 1306.161 135.319,1302.018 135.000,1290.199 135.000 L 1274.335 135.000 1275.076 140.460 C 1277.210 156.190,1288.952 168.441,1307.500 174.292 C 1313.675 176.240,1316.622 176.494,1332.500 176.447 C 1349.123 176.397,1351.092 176.195,1358.244 173.805 C 1375.535 168.025,1385.087 158.212,1388.042 143.193 C 1389.653 135.005,1388.754 127.062,1385.454 120.315 C 1380.453 110.096,1369.270 104.332,1343.283 98.584 C 1317.403 92.859,1312.383 90.277,1311.290 82.126 C 1310.801 78.478,1311.100 77.700,1314.176 74.624 C 1316.993 71.807,1318.645 71.063,1323.413 70.468 C 1339.966 68.399,1351.048 73.360,1352.707 83.581 L 1353.262 87.000 1369.131 87.000 L 1385.000 87.000 1385.000 84.468 C 1385.000 83.076,1384.066 79.165,1382.925 75.778 C 1377.707 60.289,1366.051 51.963,1344.751 48.508 C 1334.637 46.868,1329.150 46.791,1318.500 48.139 M1453.000 48.965 C 1432.702 53.321,1419.165 63.652,1410.484 81.414 C 1405.289 92.043,1403.670 99.648,1403.741 113.091 C 1403.813 126.636,1405.478 134.345,1410.588 144.796 C 1417.407 158.744,1429.160 168.620,1445.500 174.134 C 1451.640 176.206,1454.343 176.494,1467.500 176.477 C 1481.192 176.458,1483.138 176.225,1489.813 173.806 C 1499.071 170.452,1507.077 164.972,1512.595 158.213 C 1516.637 153.262,1522.048 143.352,1523.496 138.250 L 1524.135 136.000 1509.649 136.000 L 1495.163 136.000 1493.066 139.393 C 1490.580 143.416,1486.174 146.845,1480.028 149.539 C 1473.867 152.241,1458.112 152.280,1453.000 149.606 C 1448.242 147.118,1443.201 142.230,1441.007 137.975 C 1439.069 134.217,1436.372 122.295,1437.259 121.408 C 1437.551 121.116,1457.083 120.918,1480.664 120.968 C 1515.251 121.041,1523.896 120.796,1525.390 119.704 C 1527.124 118.436,1527.170 117.619,1526.118 106.841 C 1522.962 74.526,1505.856 53.747,1478.140 48.564 C 1467.693 46.610,1463.675 46.674,1453.000 48.965 M290.179 75.400 C 299.247 79.739,304.346 88.083,306.848 102.677 C 310.360 123.154,303.636 142.328,290.500 149.297 C 287.299 150.996,284.697 151.428,277.476 151.460 C 269.715 151.494,267.758 151.143,263.486 148.945 C 257.645 145.942,253.054 140.315,249.890 132.282 C 246.752 124.314,246.474 102.465,249.404 94.000 C 253.276 82.810,258.727 76.909,267.994 73.876 C 272.196 72.501,286.119 73.457,290.179 75.400 M586.595 75.768 C 597.293 81.291,603.018 94.052,602.985 112.299 C 602.953 130.446,597.032 143.734,586.500 149.296 C 580.655 152.382,567.163 152.378,561.372 149.287 C 548.421 142.375,541.036 123.039,543.926 103.611 C 546.114 88.902,552.568 78.730,562.240 74.745 C 568.170 72.301,580.916 72.837,586.595 75.768 M732.666 76.593 C 736.515 78.969,738.152 80.895,740.698 86.039 C 742.457 89.592,744.180 93.963,744.527 95.750 L 745.159 99.000 717.579 99.000 L 690.000 99.000 690.000 96.626 C 690.000 90.115,695.577 80.661,701.621 76.925 C 706.946 73.634,709.859 73.038,719.166 73.333 C 726.774 73.574,728.421 73.972,732.666 76.593 M943.245 76.297 C 948.620 79.448,953.149 85.258,956.227 92.952 C 958.161 97.790,958.446 100.356,958.446 113.000 C 958.446 129.574,956.919 135.230,950.385 142.864 C 944.562 149.666,940.090 151.507,929.500 151.460 C 918.883 151.412,914.328 149.537,908.615 142.864 C 902.021 135.160,900.550 129.621,900.550 112.500 C 900.550 99.329,900.821 96.823,902.773 91.947 C 908.420 77.843,916.078 72.709,930.592 73.297 C 937.187 73.564,939.528 74.119,943.245 76.297 M1475.277 74.060 C 1482.798 76.149,1490.092 85.467,1491.603 94.917 L 1492.256 99.000 1464.548 99.000 L 1436.841 99.000 1437.522 95.750 C 1439.867 84.555,1446.385 76.857,1455.994 73.934 C 1459.743 72.794,1470.981 72.867,1475.277 74.060 M1091.000 123.818 C 1091.000 145.314,1082.617 154.500,1063.000 154.500 C 1049.792 154.500,1043.343 150.226,1042.277 140.764 C 1041.920 137.597,1042.355 134.987,1043.774 131.779 C 1045.423 128.050,1046.713 126.799,1051.137 124.640 C 1054.087 123.201,1058.975 121.590,1062.000 121.061 C 1078.796 118.123,1085.657 116.716,1087.000 115.934 C 1090.535 113.876,1091.000 114.792,1091.000 123.818 " stroke="none" fill="black" fill-rule="evenodd"/></svg>