<svg id="svg" version="1.1" width="2249" height="148" viewBox="0 0 2249 148" xmlns="http://www.w3.org/2000/svg"><path d="M37.773 3.555 C 26.224 6.355,16.343 13.530,11.753 22.449 C 8.829 28.131,8.195 40.059,10.454 46.863 C 12.681 53.566,18.917 59.904,27.157 63.836 C 33.507 66.867,59.013 74.000,63.500 74.000 C 67.275 74.000,75.360 80.067,76.569 83.806 C 79.908 94.138,70.588 102.000,55.000 102.000 C 40.784 102.000,31.543 95.743,29.474 84.715 L 28.777 81.000 16.750 81.000 L 4.722 81.000 5.271 87.057 C 6.663 102.407,18.901 114.883,37.265 119.676 C 44.522 121.570,62.065 121.821,69.185 120.132 C 83.687 116.692,93.553 109.692,98.700 99.190 C 101.085 94.325,101.490 92.268,101.495 85.000 C 101.499 77.453,101.169 75.903,98.551 71.176 C 93.054 61.253,84.598 56.674,59.630 50.098 C 42.221 45.513,36.872 43.260,34.386 39.466 C 32.210 36.146,33.077 29.612,36.122 26.370 C 41.365 20.789,55.504 19.656,64.667 24.084 C 69.428 26.385,71.686 29.339,72.807 34.733 L 73.590 38.500 85.545 38.500 C 97.280 38.500,97.506 38.457,97.828 36.186 C 98.008 34.913,97.225 30.806,96.086 27.059 C 92.456 15.108,82.022 6.597,67.131 3.440 C 58.832 1.681,45.284 1.734,37.773 3.555 M208.000 13.000 L 208.000 22.000 219.500 22.000 L 231.000 22.000 231.000 13.000 L 231.000 4.000 219.500 4.000 L 208.000 4.000 208.000 13.000 M337.000 13.000 L 337.000 22.000 348.500 22.000 L 360.000 22.000 360.000 13.000 L 360.000 4.000 348.500 4.000 L 337.000 4.000 337.000 13.000 M1621.000 24.500 C 1621.000 35.775,1620.838 45.000,1620.640 45.000 C 1620.442 45.000,1618.646 43.459,1616.648 41.575 C 1608.103 33.516,1591.584 31.630,1580.177 37.410 C 1556.738 49.288,1551.476 87.720,1570.302 109.532 C 1581.917 122.988,1606.894 124.275,1618.500 112.014 L 1621.500 108.845 1622.000 113.672 L 1622.500 118.500 1633.000 118.500 L 1643.500 118.500 1643.758 61.250 L 1644.016 4.000 1632.508 4.000 L 1621.000 4.000 1621.000 24.500 M963.820 21.152 C 964.291 36.111,964.347 36.000,956.231 36.000 L 949.500 35.999 949.650 43.250 L 949.799 50.500 956.400 50.796 C 960.030 50.958,963.089 51.183,963.197 51.296 C 963.306 51.408,963.644 64.406,963.947 80.180 C 964.466 107.093,964.627 109.029,966.557 111.611 C 970.964 117.507,983.108 120.695,996.250 119.404 L 1003.000 118.742 1002.999 110.121 L 1002.998 101.500 996.516 101.481 C 986.262 101.451,986.558 102.224,986.184 74.466 L 985.867 51.000 994.434 51.000 L 1003.000 51.000 1003.000 43.540 L 1003.000 36.081 994.750 35.790 L 986.500 35.500 986.219 23.250 L 985.938 11.000 974.719 10.998 L 963.500 10.996 963.820 21.152 M1466.000 23.500 L 1466.000 36.000 1458.956 36.000 L 1451.912 36.000 1452.206 43.250 L 1452.500 50.500 1459.250 50.796 L 1466.000 51.091 1466.000 75.496 C 1466.000 107.730,1467.101 112.447,1475.558 116.461 C 1480.622 118.863,1491.277 120.187,1499.250 119.404 L 1506.000 118.742 1505.999 110.121 L 1505.998 101.500 1499.516 101.481 C 1489.260 101.451,1489.555 102.225,1489.199 74.466 L 1488.897 51.000 1497.449 51.000 L 1506.000 51.000 1506.000 43.500 L 1506.000 36.000 1497.500 36.000 L 1489.000 36.000 1489.000 23.500 L 1489.000 11.000 1477.500 11.000 L 1466.000 11.000 1466.000 23.500 M138.500 35.361 C 124.123 39.148,116.216 46.546,114.399 57.908 L 113.744 62.000 124.904 62.000 C 134.650 62.000,136.134 61.779,136.625 60.250 C 139.593 51.014,141.741 49.531,152.173 49.513 C 161.292 49.498,164.944 51.500,166.421 57.323 C 168.468 65.397,164.192 68.285,146.802 70.569 C 140.781 71.361,133.974 72.430,131.677 72.946 C 129.380 73.462,126.297 74.135,124.827 74.442 C 123.357 74.749,120.750 76.181,119.033 77.625 C 109.216 85.886,108.655 103.655,117.919 112.919 C 127.428 122.428,149.764 123.001,163.052 114.077 L 167.487 111.098 168.524 114.799 L 169.560 118.500 180.906 118.784 L 192.251 119.068 191.462 116.784 C 191.028 115.528,190.409 100.325,190.086 83.000 C 189.565 54.974,189.294 51.085,187.631 47.738 C 183.164 38.751,174.029 34.897,156.000 34.393 C 147.784 34.163,141.787 34.495,138.500 35.361 M272.000 34.627 C 261.274 36.696,253.237 42.097,249.866 49.500 C 247.148 55.467,247.340 65.735,250.250 70.011 C 253.203 74.350,261.813 78.619,272.757 81.169 C 288.347 84.802,294.607 86.906,297.329 89.429 C 300.557 92.421,300.834 96.669,298.034 100.230 C 295.072 103.995,290.931 105.278,283.158 104.839 C 275.013 104.379,269.889 101.225,268.004 95.511 L 266.845 92.000 256.422 92.000 C 246.449 92.000,246.000 92.092,246.000 94.134 C 246.000 99.480,248.599 104.677,253.961 110.057 C 261.555 117.676,269.756 120.388,284.920 120.295 C 311.039 120.136,325.548 107.478,322.547 87.468 C 321.073 77.633,313.422 73.044,290.003 67.943 C 277.486 65.217,272.285 62.864,270.905 59.304 C 268.622 53.414,273.792 49.025,283.000 49.037 C 291.054 49.047,296.273 51.727,298.350 56.916 L 300.012 61.070 310.256 60.785 L 320.500 60.500 320.214 58.000 C 319.185 49.020,311.454 39.770,302.244 36.500 C 297.536 34.828,277.415 33.582,272.000 34.627 M399.500 34.962 C 384.350 38.263,377.000 46.457,377.000 60.048 C 377.000 72.193,382.836 76.660,406.167 82.372 C 413.684 84.212,421.559 86.611,423.667 87.703 C 430.547 91.267,430.695 98.253,423.987 102.803 C 420.923 104.881,419.568 105.127,412.818 104.830 C 403.787 104.432,400.573 102.628,397.500 96.234 L 395.500 92.072 385.250 92.036 L 375.000 92.000 375.022 95.250 C 375.063 101.291,379.412 108.408,386.069 113.325 C 400.256 123.804,431.909 122.618,443.712 111.164 C 448.547 106.472,451.003 101.374,451.704 94.576 C 452.367 88.151,450.812 82.995,446.850 78.482 C 443.515 74.683,434.790 71.382,419.003 67.943 C 402.107 64.264,396.644 60.288,400.077 54.171 C 402.353 50.116,405.649 48.879,413.218 49.241 C 421.026 49.614,424.521 51.636,427.274 57.373 L 429.048 61.069 439.274 60.785 L 449.500 60.500 449.178 57.500 C 448.291 49.225,440.514 40.113,431.382 36.647 C 425.824 34.539,406.205 33.501,399.500 34.962 M486.270 34.990 C 471.590 38.110,464.067 46.601,464.022 60.102 C 464.005 65.326,464.470 67.394,466.250 70.011 C 469.194 74.337,477.782 78.605,488.757 81.195 C 504.651 84.947,510.673 86.968,513.352 89.451 C 516.557 92.421,516.826 96.680,514.034 100.230 C 511.059 104.012,506.936 105.279,499.050 104.833 C 490.755 104.364,487.434 102.390,484.526 96.202 L 482.552 92.000 472.276 92.000 L 462.000 92.000 462.044 94.750 C 462.156 101.757,466.530 108.730,474.000 113.812 C 487.866 123.243,516.064 122.604,529.217 112.560 C 539.669 104.580,542.255 87.716,534.367 78.984 C 530.432 74.629,522.470 71.530,506.003 67.943 C 493.486 65.217,488.285 62.864,486.905 59.304 C 484.653 53.495,489.772 49.040,498.730 49.015 C 506.940 48.992,511.828 51.434,514.079 56.683 L 515.959 61.070 526.230 60.785 L 536.500 60.500 536.214 58.000 C 535.186 49.025,527.833 40.210,518.403 36.647 C 512.767 34.518,493.230 33.510,486.270 34.990 M577.462 35.964 C 559.866 41.730,549.000 57.554,549.000 77.416 C 549.000 100.933,562.385 116.793,584.932 119.990 C 598.345 121.893,613.990 117.332,620.849 109.519 C 624.213 105.688,628.437 98.691,629.464 95.250 C 630.127 93.026,630.024 93.000,620.503 93.000 C 610.997 93.000,610.837 93.040,608.310 96.044 C 602.118 103.402,589.477 105.630,580.895 100.875 C 576.136 98.239,572.324 92.002,571.804 86.000 L 571.500 82.500 601.750 82.235 L 632.000 81.971 632.000 77.622 C 632.000 60.479,622.913 44.529,609.339 37.846 C 603.752 35.096,601.691 34.647,593.216 34.339 C 585.532 34.059,582.237 34.399,577.462 35.964 M886.000 35.313 C 878.222 37.559,873.677 40.241,867.956 45.959 C 859.261 54.649,856.068 63.128,856.024 77.645 C 855.955 100.834,869.472 116.805,891.856 119.980 C 900.773 121.244,911.389 119.884,918.689 116.542 C 935.932 108.648,945.053 88.372,940.992 66.960 C 938.531 53.982,931.093 44.132,919.384 38.345 C 912.379 34.883,911.209 34.625,901.199 34.329 C 894.465 34.130,888.833 34.495,886.000 35.313 M1054.994 34.934 C 1050.091 36.426,1046.340 38.908,1042.198 43.401 C 1039.889 45.906,1038.000 48.415,1038.000 48.978 C 1038.000 49.540,1037.550 50.000,1037.000 50.000 C 1036.429 50.000,1036.000 47.000,1036.000 43.000 L 1036.000 36.000 1024.989 36.000 L 1013.978 36.000 1014.239 77.250 L 1014.500 118.500 1025.500 118.500 L 1036.500 118.500 1037.000 95.000 C 1037.480 72.422,1037.598 71.306,1040.000 66.551 C 1041.375 63.829,1044.229 60.229,1046.341 58.551 C 1049.862 55.754,1050.925 55.471,1059.091 55.151 L 1068.000 54.801 1068.000 44.401 L 1068.000 34.000 1062.750 34.086 C 1059.862 34.133,1056.372 34.515,1054.994 34.934 M1103.618 35.057 C 1085.338 39.608,1071.952 57.712,1072.015 77.799 C 1072.101 105.154,1094.334 123.924,1122.002 120.000 C 1125.936 119.442,1131.568 117.844,1134.518 116.448 C 1141.118 113.326,1148.863 105.094,1151.761 98.120 L 1153.889 93.000 1143.968 93.000 C 1134.507 93.000,1133.971 93.115,1132.420 95.482 C 1128.517 101.438,1118.454 104.719,1109.784 102.862 C 1101.282 101.041,1095.028 93.164,1095.006 84.250 L 1095.000 82.000 1125.000 82.000 L 1155.000 82.000 1154.988 75.750 C 1154.956 58.831,1146.227 44.279,1132.159 37.692 C 1126.472 35.029,1124.186 34.538,1116.500 34.332 C 1111.550 34.199,1105.753 34.526,1103.618 35.057 M1251.860 35.510 C 1249.271 36.339,1245.007 38.986,1242.213 41.498 C 1239.459 43.974,1236.935 46.000,1236.603 46.000 C 1236.271 46.000,1236.000 43.750,1236.000 41.000 L 1236.000 36.000 1225.489 36.000 L 1214.978 36.000 1215.239 77.250 L 1215.500 118.500 1226.500 118.500 L 1237.500 118.500 1238.000 90.500 C 1238.333 71.877,1238.890 61.830,1239.664 60.500 C 1240.304 59.400,1242.207 57.188,1243.892 55.584 C 1247.799 51.866,1255.886 50.855,1260.915 53.456 C 1266.939 56.571,1267.424 59.198,1267.753 90.500 L 1268.047 118.500 1278.965 118.782 L 1289.882 119.064 1290.191 91.782 C 1290.486 65.776,1290.606 64.285,1292.768 59.898 C 1295.818 53.707,1299.846 51.574,1307.318 52.193 C 1313.338 52.693,1316.366 54.562,1318.343 59.000 C 1319.032 60.546,1319.656 72.371,1319.979 90.000 L 1320.500 118.500 1331.500 118.500 L 1342.500 118.500 1342.500 86.500 C 1342.500 54.978,1342.465 54.422,1340.130 49.258 C 1335.220 38.396,1325.504 33.367,1311.047 34.203 C 1302.172 34.717,1294.748 38.127,1289.787 43.966 C 1287.839 46.259,1286.613 47.048,1286.297 46.213 C 1285.221 43.377,1280.522 38.795,1276.624 36.783 C 1271.280 34.025,1258.539 33.369,1251.860 35.510 M1389.000 35.360 C 1376.895 38.655,1366.089 47.978,1361.928 58.715 C 1358.780 66.839,1358.117 81.835,1360.514 90.691 C 1366.120 111.400,1385.589 123.214,1408.864 120.030 C 1435.036 116.450,1449.791 92.959,1443.431 64.995 C 1439.946 49.673,1428.509 38.373,1413.201 35.124 C 1406.392 33.680,1394.756 33.793,1389.000 35.360 M1688.000 35.431 C 1676.413 38.655,1667.396 46.298,1661.891 57.561 C 1658.566 64.365,1658.500 64.753,1658.500 77.500 C 1658.500 90.008,1658.618 90.746,1661.626 97.000 C 1666.145 106.398,1670.889 111.350,1679.304 115.453 C 1696.470 123.822,1717.428 121.572,1728.869 110.131 C 1732.187 106.813,1739.000 95.648,1739.000 93.529 C 1739.000 93.238,1734.585 93.000,1729.188 93.000 C 1719.458 93.000,1719.358 93.025,1717.170 95.983 C 1711.375 103.822,1696.232 105.862,1687.897 99.926 C 1684.243 97.325,1681.227 91.571,1680.814 86.415 L 1680.500 82.500 1710.895 82.235 L 1741.291 81.970 1740.679 74.735 C 1739.030 55.255,1728.871 40.965,1713.145 36.005 C 1705.893 33.717,1695.048 33.470,1688.000 35.431 M1835.165 35.842 C 1831.923 37.002,1828.099 39.450,1825.415 42.083 L 1821.000 46.416 1821.000 41.208 L 1821.000 36.000 1810.500 36.000 L 1800.000 36.000 1800.000 92.000 L 1800.000 148.000 1811.000 148.000 L 1822.000 148.000 1822.000 128.500 C 1822.000 117.775,1822.366 109.000,1822.813 109.000 C 1823.260 109.000,1824.948 110.391,1826.563 112.092 C 1838.711 124.878,1863.207 122.800,1874.914 107.989 C 1882.304 98.641,1885.936 83.962,1884.109 70.831 C 1881.744 53.835,1875.242 43.506,1863.086 37.434 C 1855.723 33.756,1843.023 33.032,1835.165 35.842 M1921.550 35.542 C 1907.936 38.980,1898.000 49.242,1898.000 59.866 C 1898.000 61.916,1898.436 62.000,1909.031 62.000 C 1918.657 62.000,1920.134 61.777,1920.625 60.250 C 1923.593 51.014,1925.741 49.531,1936.173 49.513 C 1945.292 49.498,1948.944 51.500,1950.421 57.323 C 1952.456 65.350,1948.189 68.274,1931.125 70.546 C 1916.796 72.454,1907.367 74.529,1904.506 76.404 C 1891.099 85.189,1892.597 109.381,1907.000 116.704 C 1919.219 122.917,1938.284 121.214,1948.760 112.974 L 1951.425 110.878 1952.493 114.689 L 1953.560 118.500 1964.906 118.784 L 1976.251 119.068 1975.462 116.784 C 1975.028 115.528,1974.409 100.325,1974.086 83.000 C 1973.562 54.841,1973.299 51.096,1971.609 47.694 C 1969.301 43.046,1964.837 39.520,1957.809 36.792 C 1950.704 34.034,1930.307 33.331,1921.550 35.542 M2014.000 34.627 C 2002.872 36.774,1994.411 42.739,1991.433 50.535 C 1989.311 56.093,1989.801 66.521,1992.368 70.439 C 1994.976 74.420,2006.646 79.505,2020.000 82.480 C 2038.445 86.589,2043.986 90.508,2041.443 97.648 C 2037.453 108.852,2013.878 107.250,2010.004 95.511 L 2008.845 92.000 1998.422 92.000 C 1988.449 92.000,1988.000 92.092,1988.000 94.134 C 1988.000 102.406,1995.346 112.087,2004.863 116.358 C 2021.457 123.805,2047.073 120.980,2057.501 110.552 C 2066.790 101.263,2067.649 85.502,2059.297 77.618 C 2055.705 74.228,2049.338 71.926,2034.000 68.470 C 2015.666 64.339,2010.180 60.569,2013.234 54.198 C 2015.204 50.091,2018.564 48.850,2026.535 49.287 C 2034.949 49.748,2038.213 51.576,2040.407 57.059 L 2041.984 61.000 2051.933 61.000 C 2057.405 61.000,2062.126 60.606,2062.424 60.123 C 2063.325 58.665,2060.228 49.697,2057.586 46.116 C 2054.605 42.076,2049.454 38.445,2043.725 36.345 C 2039.521 34.804,2019.176 33.628,2014.000 34.627 M2099.270 34.996 C 2088.487 37.272,2080.158 43.986,2077.951 52.182 C 2076.432 57.825,2077.157 67.064,2079.385 70.465 C 2081.952 74.383,2093.650 79.505,2106.662 82.409 C 2124.778 86.451,2129.000 88.828,2129.000 94.981 C 2129.000 98.779,2126.936 101.492,2122.182 103.946 C 2119.658 105.250,2110.384 105.556,2106.763 104.455 C 2102.658 103.208,2098.057 98.998,2097.208 95.714 L 2096.377 92.500 2085.688 92.216 C 2075.304 91.940,2075.000 91.994,2075.000 94.100 C 2075.000 102.406,2082.328 112.079,2091.863 116.358 C 2102.586 121.170,2118.685 121.822,2132.177 117.990 C 2138.010 116.334,2145.190 110.909,2148.353 105.769 C 2152.446 99.118,2153.195 89.099,2150.079 82.664 C 2146.571 75.416,2143.429 73.873,2121.155 68.457 C 2102.355 63.885,2100.000 62.564,2100.000 56.584 C 2100.000 51.107,2102.808 49.499,2112.358 49.507 C 2121.978 49.515,2124.997 51.035,2127.421 57.094 L 2129.012 61.070 2139.256 60.785 L 2149.500 60.500 2149.206 57.500 C 2148.723 52.587,2144.204 44.393,2140.357 41.459 C 2133.785 36.446,2127.606 34.726,2115.000 34.400 C 2108.675 34.237,2101.596 34.505,2099.270 34.996 M2192.500 35.460 C 2189.750 36.258,2187.214 36.932,2186.864 36.956 C 2186.514 36.980,2183.499 38.822,2180.164 41.050 C 2158.131 55.763,2155.661 91.694,2175.440 109.771 C 2190.652 123.674,2217.834 124.083,2232.721 110.633 C 2236.393 107.316,2243.000 96.695,2243.000 94.110 C 2243.000 93.374,2239.777 93.000,2233.435 93.000 C 2224.005 93.000,2223.835 93.043,2221.310 96.044 C 2215.164 103.347,2202.458 105.634,2194.105 100.939 C 2189.399 98.294,2185.000 90.740,2185.000 85.304 L 2185.000 82.000 2215.000 82.000 L 2245.000 82.000 2245.000 77.049 C 2245.000 59.629,2235.578 43.816,2221.305 37.282 C 2214.272 34.062,2200.348 33.181,2192.500 35.460 M208.239 77.250 L 208.500 118.500 219.750 118.783 L 231.000 119.066 231.000 77.533 L 231.000 36.000 219.489 36.000 L 207.978 36.000 208.239 77.250 M337.239 77.250 L 337.500 118.500 348.750 118.783 L 360.000 119.066 360.000 77.533 L 360.000 36.000 348.489 36.000 L 336.978 36.000 337.239 77.250 M643.000 44.500 L 643.000 53.000 662.500 53.000 C 673.225 53.000,682.000 53.288,682.000 53.639 C 682.000 54.423,671.971 65.985,666.475 71.537 C 664.261 73.773,657.398 81.273,651.225 88.204 L 640.000 100.804 640.000 109.902 L 640.000 119.000 678.000 119.000 L 716.000 119.000 716.000 110.500 L 716.000 102.000 693.500 102.000 C 677.713 102.000,671.000 101.670,671.000 100.893 C 671.000 99.794,692.635 74.785,694.102 74.189 C 694.523 74.018,698.947 69.217,703.934 63.522 L 713.000 53.167 713.000 44.583 L 713.000 36.000 678.000 36.000 L 643.000 36.000 643.000 44.500 M771.518 51.750 C 774.500 60.413,780.930 78.975,785.809 93.000 L 794.679 118.500 807.239 118.779 L 819.800 119.058 822.306 111.779 C 834.274 77.024,848.000 36.747,848.000 36.382 C 848.000 36.136,842.974 36.062,836.831 36.217 L 825.663 36.500 823.906 42.000 C 822.940 45.025,819.178 56.950,815.547 68.500 C 811.916 80.050,808.694 90.175,808.387 91.000 C 807.864 92.408,803.716 80.338,794.038 49.250 L 789.914 36.000 778.005 36.000 L 766.097 36.000 771.518 51.750 M597.685 52.067 C 603.085 54.113,607.032 59.126,608.459 65.750 L 609.159 69.000 590.579 69.000 L 572.000 69.000 572.000 66.338 C 572.000 61.794,576.712 55.034,581.346 52.930 C 585.969 50.831,593.389 50.439,597.685 52.067 M907.684 52.943 C 915.691 56.579,919.449 65.507,918.803 79.362 C 918.053 95.439,911.502 103.317,898.872 103.328 C 891.780 103.335,885.429 99.888,882.310 94.338 C 877.934 86.551,877.251 72.197,880.818 62.944 C 882.315 59.060,887.039 53.893,890.450 52.407 C 894.857 50.487,902.821 50.735,907.684 52.943 M1122.688 52.656 C 1126.837 54.625,1130.850 60.300,1131.671 65.360 L 1132.262 69.000 1113.631 69.000 C 1092.926 69.000,1093.607 69.270,1096.548 62.232 C 1098.493 57.577,1101.636 54.129,1105.500 52.412 C 1109.689 50.550,1118.513 50.675,1122.688 52.656 M1410.599 52.905 C 1418.086 56.306,1422.000 64.790,1422.000 77.621 C 1422.000 89.479,1417.807 98.015,1410.004 102.044 C 1406.145 104.038,1396.897 103.661,1392.382 101.326 C 1377.049 93.398,1377.825 59.414,1393.500 52.417 C 1397.791 50.502,1405.811 50.731,1410.599 52.905 M1611.093 53.327 C 1625.591 60.982,1625.337 94.086,1610.722 101.644 C 1606.514 103.820,1598.350 103.734,1593.567 101.465 C 1589.406 99.490,1584.651 93.001,1582.993 87.035 C 1582.453 85.091,1582.009 80.294,1582.006 76.376 C 1581.996 64.603,1586.056 56.241,1593.401 52.905 C 1599.093 50.320,1605.696 50.478,1611.093 53.327 M1707.400 52.394 C 1709.235 53.161,1711.876 55.298,1713.270 57.144 C 1715.856 60.570,1718.258 67.409,1717.234 68.433 C 1716.493 69.174,1681.507 69.174,1680.766 68.433 C 1679.855 67.521,1682.047 60.753,1684.265 57.633 C 1688.389 51.832,1699.845 49.237,1707.400 52.394 M1849.929 52.752 C 1854.859 55.266,1858.684 60.609,1860.457 67.460 C 1862.405 74.986,1862.405 80.023,1860.458 87.501 C 1857.649 98.285,1851.953 103.174,1842.094 103.263 C 1833.798 103.339,1828.681 100.088,1824.367 92.000 C 1821.479 86.586,1821.662 67.057,1824.653 61.500 C 1827.153 56.854,1830.463 53.534,1834.001 52.123 C 1838.034 50.515,1846.173 50.836,1849.929 52.752 M2212.604 52.907 C 2215.816 54.366,2217.282 55.925,2219.354 60.082 C 2223.998 69.402,2224.718 69.000,2203.369 69.000 L 2184.738 69.000 2185.327 65.374 C 2187.205 53.797,2200.840 47.565,2212.604 52.907 M166.978 84.750 C 166.945 94.967,163.471 101.349,156.498 104.001 C 152.564 105.498,143.523 105.459,139.832 103.931 C 134.772 101.834,132.621 95.122,135.197 89.467 C 136.895 85.741,142.329 83.323,152.792 81.639 C 157.777 80.837,162.676 79.703,163.678 79.120 C 166.746 77.336,167.001 77.771,166.978 84.750 M1950.956 84.250 C 1950.854 98.727,1944.913 105.195,1931.772 105.132 C 1921.335 105.082,1916.431 99.901,1918.588 91.206 C 1919.822 86.234,1924.910 83.547,1936.678 81.655 C 1941.726 80.844,1946.676 79.703,1947.678 79.120 C 1950.729 77.346,1951.002 77.773,1950.956 84.250 " stroke="none" fill="black" fill-rule="evenodd"/></svg>